<!DOCTYPE svg PUBLIC "-//W3C//DTD SVG 1.1//EN" "http://www.w3.org/Graphics/SVG/1.1/DTD/svg11.dtd">
<!-- Uploaded to: SVG Repo, www.svgrepo.com, Transformed by: SVG Repo Mixer Tools -->
<svg width="147px" height="147px" viewBox="0 0 24.00 24.00" xmlns="http://www.w3.org/2000/svg" fill="#081340" stroke="#081340">
<g id="SVGRepo_bgCarrier" stroke-width="0"/>
<g id="SVGRepo_tracerCarrier" stroke-linecap="round" stroke-linejoin="round"/>
<g id="SVGRepo_iconCarrier"> <g> <path fill="none" d="M0 0h24v24H0z"/> <path fill-rule="nonzero" d="M3 3h18a1 1 0 0 1 1 1v16a1 1 0 0 1-1 1H3a1 1 0 0 1-1-1V4a1 1 0 0 1 1-1zm1 2v14h16V5H4zm16 7l-3.536 3.536-1.414-1.415L17.172 12 15.05 9.879l1.414-1.415L20 12zM6.828 12l2.122 2.121-1.414 1.415L4 12l3.536-3.536L8.95 9.88 6.828 12zm4.416 5H9.116l3.64-10h2.128l-3.64 10z"/> </g> </g>
</svg>